<svg width="20" height="36" viewBox="0 0 20 36" fill="none" xmlns="http://www.w3.org/2000/svg">
<path d="M11.3076 23.0635V12.1132C11.3076 11.6848 11.1375 11.274 10.8346 10.9711C10.5317 10.6682 10.1209 10.4981 9.69254 10.4981C9.2642 10.4981 8.85339 10.6682 8.5505 10.9711C8.24762 11.274 8.07746 11.6848 8.07746 12.1132V23.0635C7.58925 23.3453 7.18331 23.75 6.89997 24.2374C6.61664 24.7247 6.46577 25.2777 6.46237 25.8414C6.46237 26.6981 6.80269 27.5197 7.40846 28.1255C8.01424 28.7313 8.83585 29.0716 9.69254 29.0716C10.5492 29.0716 11.3708 28.7313 11.9766 28.1255C12.5824 27.5197 12.9227 26.6981 12.9227 25.8414C12.9193 25.2777 12.7684 24.7247 12.4851 24.2374C12.2018 23.75 11.7958 23.3453 11.3076 23.0635ZM16.9604 19.3811V7.2679C16.9604 5.34033 16.1947 3.49171 14.8317 2.12872C13.4687 0.765722 11.6201 0 9.69254 0C7.76498 0 5.91636 0.765722 4.55337 2.12872C3.19037 3.49171 2.42465 5.34033 2.42465 7.2679V19.3811C1.30837 20.646 0.541662 22.1804 0.200369 23.8326C-0.140925 25.4848 -0.0449784 27.1974 0.478716 28.8012C1.00241 30.4049 1.93571 31.8441 3.18629 32.9764C4.43687 34.1088 5.9614 34.895 7.60908 35.2574C8.29354 35.4134 8.99104 35.5053 9.69254 35.5319C11.5671 35.5407 13.4039 35.0055 14.9804 33.9914C16.5569 32.9772 17.8054 31.5276 18.5746 29.8182C19.3439 28.1087 19.6008 26.2129 19.3143 24.3604C19.0278 22.5079 18.2101 20.7782 16.9604 19.3811ZM13.7303 30.7997C12.4452 31.9391 10.7602 32.5214 9.04584 32.4184C7.33149 32.3154 5.72827 31.5356 4.58887 30.2506C3.44946 28.9656 2.8672 27.2805 2.97019 25.5662C3.07317 23.8518 3.85295 22.2486 5.138 21.1092C5.2906 20.9596 5.41201 20.7812 5.49518 20.5844C5.57835 20.3876 5.62163 20.1762 5.62252 19.9625V7.2679C5.62252 6.19703 6.04792 5.17002 6.80514 4.4128C7.56236 3.65558 8.58937 3.23018 9.66024 3.23018C10.7311 3.23018 11.7581 3.65558 12.5153 4.4128C13.2726 5.17002 13.698 6.19703 13.698 7.2679V20.0917C13.6988 20.3054 13.7421 20.5168 13.8253 20.7136C13.9085 20.9104 14.0299 21.0888 14.1825 21.2384C14.8427 21.8762 15.3593 22.6473 15.6981 23.5004C16.0369 24.3535 16.19 25.269 16.1472 26.1859C16.1044 27.1028 15.8667 28.0001 15.45 28.8179C15.0332 29.6358 14.447 30.3554 13.7303 30.9289V30.7997Z" fill="white"/>
</svg>
